<?xml version="1.0" encoding="UTF-8"?>
<svg width="16px" height="17px" viewBox="0 0 16 17" version="1.1" xmlns="http://www.w3.org/2000/svg" xmlns:xlink="http://www.w3.org/1999/xlink">
    <title>icon: menu FPO home</title>
    <g id="Symbols" stroke="none" stroke-width="1" fill="none" fill-rule="evenodd">
        <g id="icon:-menu-FPO-circle-home" transform="translate(-12.000000, -12.000000)" fill="#ffffff" fill-rule="nonzero">
            <g id="icon:-menu-FPO-home" transform="translate(12.000000, 12.000000)">
                <path d="M7.62025,0.143374006 C7.72425,0.040374006 7.85925,-0.00362599405 7.99525,0.000374005952 C8.13025,-0.00462599405 8.26625,0.040374006 8.37025,0.143374006 L15.84125,6.12937401 C16.03925,6.32837401 16.03925,6.65037401 15.84125,6.85037401 C15.64225,7.04937401 15.32025,7.04937401 15.12125,6.85037401 L14.98125,6.73837401 L14.98125,15.006374 C14.98125,15.558374 14.53425,16.006374 13.98325,16.006374 L11.98725,16.006374 L6.99725,16.006374 L2.00725,16.006374 C1.45625,16.006374 1.00925,15.558374 1.00925,15.006374 L1.00925,6.73837401 L0.86825,6.85037401 C0.67025,7.04937401 0.34725,7.04937401 0.14925,6.85037401 C-0.04975,6.65137401 -0.04975,6.32937401 0.14925,6.12937401 L7.62025,0.143374006 Z M7.99525,15.005374 L10.98925,15.005374 L10.98925,9.00437401 L7.99525,9.00437401 L7.99525,15.005374 Z M13.98425,5.93837401 L7.99625,1.14137401 L2.00825,5.93837401 L2.00825,14.504374 C2.00825,14.780374 2.23125,15.005374 2.50725,15.005374 L6.99825,15.005374 L6.99825,8.00437401 L11.98825,8.00437401 L11.98825,15.005374 L13.48525,15.005374 C13.76025,15.005374 13.98425,14.780374 13.98425,14.504374 L13.98425,5.93837401 Z M3.00525,8.00437401 L5.99925,8.00437401 L5.99925,11.004374 L3.00525,11.004374 L3.00525,8.00437401 Z M4.00325,10.004374 L5.00125,10.004374 L5.00125,9.00437401 L4.00325,9.00437401 L4.00325,10.004374 Z"></path>
            </g>
        </g>
    </g>
</svg>