<?xml version="1.0" encoding="UTF-8"?>
<svg width="15px" height="16px" viewBox="0 0 15 16" version="1.1" xmlns="http://www.w3.org/2000/svg" xmlns:xlink="http://www.w3.org/1999/xlink">
    <title>icon: menu FPO challenges</title>
    <g id="icon:-menu-FPO-challenges" stroke="none" stroke-width="1" fill="none" fill-rule="evenodd">
        <path d="M14.2950427,5.416 C13.7060427,6.136 12.7950427,7.001 11.5850427,7.001 C11.5700427,7.001 11.5580427,6.994 11.5430427,6.992 C10.8820427,8.606 9.56404266,9.76 7.98504266,9.943 L7.98504266,13.012 L9.47904266,13.012 C9.75304266,13.012 9.97604266,13.236 9.97604266,13.512 C9.97604266,13.788 9.75304266,14.011 9.47904266,14.011 L5.47304266,14.011 C5.19904266,14.011 4.97604266,13.788 4.97604266,13.512 C4.97604266,13.236 5.19804266,13.012 5.47304266,13.012 L6.98104266,13.012 L6.98104266,9.927 C5.44704266,9.697 4.14304266,8.56 3.47804266,6.986 C3.45304266,6.99 3.43004266,7.001 3.40404266,7.001 C2.19504266,7.001 1.28304266,6.136 0.69404266,5.416 C-0.28395734,4.223 0.0530426603,2.471 0.0680426603,2.398 C0.11504266,2.166 0.32104266,2 0.56004266,2 L3.00304266,2 L3.00304266,0.5 C3.00304266,0.224 3.22704266,0 3.50304266,0 L11.5030427,0 C11.7800427,0 12.0030427,0.225 12.0030427,0.5 L12.0030427,2 L14.4280427,2 C14.6670427,2 14.8720427,2.166 14.9200427,2.398 C14.9360427,2.471 15.2730427,4.223 14.2950427,5.416 Z M1.00904266,3 C0.98704266,3.454 1.03104266,4.25 1.47604266,4.789 C1.82604266,5.213 2.39604266,5.824 3.15204266,5.951 C3.06504266,5.545 3.00404266,5.127 3.00404266,4.687 L3.00404266,3 L1.00904266,3 Z M11.0030427,1 L4.00304266,1 L4.00304266,4.688 C4.00304266,7.081 5.57004266,9.06 7.54904266,9.06 C9.52704266,9.06 11.0030427,7.081 11.0030427,4.688 L11.0030427,1 Z M12.0040427,3 L12.0040427,4.688 C12.0040427,5.126 11.9460427,5.542 11.8630427,5.946 C12.6060427,5.811 13.1680427,5.209 13.5140427,4.79 C13.9580427,4.251 14.0030427,3.456 13.9810427,3.001 L12.0040427,3.001 L12.0040427,3 Z M3.44804266,14.996 L11.5060427,14.996 C11.7830427,14.996 12.0080427,15.221 12.0080427,15.497 C12.0080427,15.772 11.7830427,15.996 11.5060427,15.996 L3.44804266,15.996 C3.17004266,15.996 2.94603934,15.772 2.94603934,15.497 C2.94504266,15.221 3.17004266,14.996 3.44804266,14.996 Z" fill="#000000" fill-rule="nonzero"></path>
    </g>
</svg>