<?xml version="1.0" encoding="UTF-8"?>
<svg width="8px" height="16px" viewBox="0 0 8 16" version="1.1" xmlns="http://www.w3.org/2000/svg" xmlns:xlink="http://www.w3.org/1999/xlink">
    <title>icon: menu FPO footprint 2</title>
    <g id="Symbols" stroke="none" stroke-width="1" fill="none" fill-rule="evenodd">
        <g id="icon:-menu-FPO-footprint-2" fill="#000000" fill-rule="nonzero">
            <path d="M1.15032747,0 C1.10282765,0 1.05907758,0.00250646902 1.01032752,0.010006466 C0.6215776,0.0737565202 0.330327798,0.366256242 0.170327862,0.720006179 C0.0103279271,1.07375612 -0.0384221332,1.50875594 0.030327919,1.96000568 C0.0990779712,2.41125541 0.271577741,2.8025055 0.530327717,3.09000522 C0.789077692,3.37750526 1.16157738,3.5737551 1.5503273,3.51000505 C1.93907723,3.44750524 2.23032703,3.15375527 2.39032696,2.80000534 C2.42282711,2.72750553 2.44657686,2.64875548 2.47032693,2.57000543 C2.52032691,2.6550054 2.57657681,2.73750552 2.64032686,2.81000533 C2.85407686,3.05625515 3.16032665,3.23125508 3.50032652,3.20000518 C3.74782658,3.17625511 3.95907641,3.04500524 4.12032627,2.87000531 C4.28907628,3.07125515 4.5203261,3.20000518 4.80032599,3.20000518 C4.92407602,3.20000518 5.0353259,3.17625511 5.14032585,3.1300052 C5.15282601,3.22375525 5.17157576,3.31500513 5.21032582,3.4000051 C5.30282595,3.60250517 5.48657563,3.78500494 5.73032561,3.83000492 C5.86032556,3.85375499 5.98532551,3.83500492 6.10032546,3.79000494 C6.07282564,3.99250502 6.09032547,4.1862547 6.17032544,4.36000471 C6.26282556,4.56250479 6.44657524,4.74500455 6.69032523,4.79000453 C6.93532513,4.8337546 7.16782519,4.73125448 7.33032497,4.58000462 C7.49282506,4.42875476 7.60032486,4.22625468 7.65032484,3.99000486 C7.6990749,3.75375503 7.68282498,3.52250521 7.59032486,3.32000513 C7.49782506,3.11750537 7.31532497,2.93250544 7.07032507,2.8900053 C6.94032512,2.86625523 6.81532518,2.8850053 6.70032522,2.93000529 C6.72657513,2.72750553 6.71032522,2.53375553 6.63032525,2.36000552 C6.53782545,2.15750576 6.35532536,1.97250583 6.11032546,1.93000569 C5.98282567,1.90625562 5.86282572,1.92750585 5.75032561,1.97000567 C5.70282579,1.43500589 5.33282593,0.960006082 4.80032599,0.960006082 C4.62157598,0.960006082 4.46782628,1.01875614 4.33032618,1.11000602 C4.26532621,0.960006082 4.1828264,0.827506295 4.08032628,0.710006183 C3.86657629,0.463756362 3.56032649,0.287506514 3.22032663,0.320006341 C2.88032677,0.352506487 2.6015768,0.577506397 2.44032694,0.860006122 C2.41532695,0.905006104 2.40032696,0.952506245 2.38032697,1 C2.29282716,0.781256074 2.17532705,0.591256151 2.03032711,0.430006296 C1.80407728,0.178756478 1.48532733,-0.00124352947 1.15032747,0 Z M1.11032748,0.640006211 C1.23782759,0.6187563 1.39157729,0.673756278 1.5503273,0.850006126 C1.70907732,1.02625598 1.84907726,1.32125586 1.90032716,1.6600058 C1.95157706,1.99875574 1.90032716,2.31000554 1.8003272,2.53000545 C1.70032724,2.75000536 1.57782745,2.85875539 1.45032734,2.88000531 C1.44657727,2.88000531 1.44407743,2.88000531 1.44032735,2.88000531 C1.31282756,2.90125522 1.16782762,2.84500532 1.01032752,2.67000539 C0.852827746,2.49500546 0.711577564,2.20000558 0.660327664,1.86000572 C0.609077765,1.52125577 0.660327664,1.21000598 0.760327624,0.99000607 C0.860327583,0.770006159 0.982827694,0.661256123 1.11032748,0.640006211 Z M3.2803266,0.960006082 C3.37782673,0.951256005 3.48657644,0.998756146 3.60032648,1.13000601 C3.71407651,1.26125588 3.80532639,1.4712558 3.83032638,1.72000577 C3.85532637,1.96750583 3.80532639,2.1912555 3.72032643,2.34000552 C3.63532646,2.48875554 3.53782666,2.55125536 3.44032654,2.56000543 C3.34407666,2.56875551 3.2340767,2.52125537 3.12032667,2.3900055 C3.00657664,2.25875564 2.91532675,2.0475058 2.89032676,1.80000574 C2.86657669,1.552506 2.91532675,1.32875601 3.00032672,1.18000599 C3.08532668,1.03125597 3.1828268,0.968756158 3.2803266,0.960006082 Z M4.80032599,1.60000582 C4.93782609,1.60000582 5.12032586,1.77625567 5.12032586,2.08000563 C5.12032586,2.38375559 4.93782609,2.56000543 4.80032599,2.56000543 C4.66282621,2.56000543 4.48032612,2.38375559 4.48032612,2.08000563 C4.48032612,1.77625567 4.66282621,1.60000582 4.80032599,1.60000582 Z M5.99032551,2.56000543 C5.99407559,2.56000543 5.99657543,2.56000543 6.0003255,2.56000543 C6.0103255,2.56125535 6.02407558,2.56250559 6.05032548,2.62000541 C6.07657539,2.67750555 6.09407555,2.78500534 6.07032548,2.9000053 C6.04657541,3.01500525 5.98282567,3.10125514 5.93032553,3.1500052 C5.88282571,3.19500518 5.86157548,3.2012551 5.85032557,3.20000518 C5.84907565,3.20000518 5.84157549,3.20000518 5.84032557,3.20000518 C5.83032557,3.19750534 5.81407566,3.19250534 5.79032559,3.1400052 C5.76407568,3.08250538 5.74657553,2.97375535 5.7703256,2.86000531 C5.79407567,2.74500536 5.85782572,2.65875547 5.91032554,2.61000541 C5.96282568,2.56125535 5.98032551,2.55875552 5.99032551,2.56000543 Z M6.95032512,3.52000505 C6.9540752,3.52000505 6.95657504,3.52000505 6.96032512,3.52000505 C6.97032511,3.52125497 6.98407519,3.52250521 7.0103251,3.58000502 C7.03657501,3.63750516 7.05407516,3.74500496 7.03032509,3.86000491 C7.00657502,3.97500486 6.94282528,4.06125475 6.89032515,4.11000481 C6.84282532,4.15500479 6.82157509,4.16125471 6.81032518,4.16000479 C6.80907526,4.16000479 6.8015751,4.16000479 6.80032518,4.16000479 C6.79032519,4.15750495 6.77407527,4.15250495 6.7503252,4.10000481 C6.72407529,4.042505 6.70657514,3.93375496 6.73032521,3.82000493 C6.75407528,3.70500497 6.81782533,3.61875509 6.87032515,3.57000503 C6.92282529,3.52125497 6.94032512,3.51875513 6.95032512,3.52000505 Z M2.61032688,3.84000492 C2.295327,3.84000492 1.83532719,3.87125482 1.41032736,4.1300048 C0.985327533,4.38875478 0.640327672,4.90750465 0.640327672,5.67000418 C0.640327672,6.77000373 1.29032741,7.38125341 1.83032719,7.89000328 C2.37032697,8.39875315 2.82032679,8.80625283 2.82032679,9.78000252 C2.82032679,10.5400022 2.47157685,10.9275022 2.0503271,11.4500018 C1.62907735,11.9725018 1.14782763,12.6362513 1.18032745,13.7100009 C1.19782761,14.2725009 1.30032741,14.8337506 1.66032726,15.2800003 C2.02032711,15.72625 2.62657679,16 3.47032653,16 C4.11407635,16 4.63907614,15.6475003 4.97032592,15.1800003 C5.30157571,14.7125007 5.47032572,14.1287508 5.47032572,13.560001 C5.47032572,12.2550015 5.84657549,11.432502 6.2503254,10.5500022 C6.65407532,9.66750272 7.08282523,8.72375302 7.04032508,7.32000351 C6.99657502,5.86625402 6.12907553,4.95250463 5.18032584,4.46000467 C4.23157614,3.96750503 3.19532664,3.84000492 2.61032688,3.84000492 Z M2.61032688,4.48000466 C3.09782684,4.48000466 4.07532628,4.59750477 4.89032595,5.02000444 C5.70532562,5.44250443 6.36282552,6.11125392 6.40032534,7.33000351 C6.43907541,8.60000299 6.07282564,9.39875275 5.67032564,10.2800023 C5.26782596,11.1612519 4.83032598,12.1262515 4.83032598,13.560001 C4.83032598,13.9987509 4.68157596,14.4687507 4.44032614,14.8100005 C4.19907631,15.1512503 3.89032636,15.3600003 3.47032653,15.3600003 C2.75282698,15.3600003 2.38782713,15.1625005 2.16032706,14.8800005 C1.93282731,14.5975007 1.83532719,14.1825009 1.8203272,13.6900009 C1.79282737,12.8012512 2.12782723,12.3612514 2.5403269,11.8500017 C2.9528269,11.338752 3.46032653,10.7487522 3.46032653,9.78000252 C3.46032653,8.59125292 2.81782695,7.93500326 2.27032701,7.42000347 C1.72282739,6.90500368 1.28032741,6.53375391 1.28032741,5.67000418 C1.28032741,5.07625434 1.48157725,4.83750467 1.74032723,4.68000458 C1.9990772,4.5225048 2.35282714,4.48000466 2.61032688,4.48000466 Z"></path>
        </g>
    </g>
</svg>