<?xml version="1.0" encoding="UTF-8"?>
<svg width="16px" height="14px" viewBox="0 0 16 14" version="1.1" xmlns="http://www.w3.org/2000/svg" xmlns:xlink="http://www.w3.org/1999/xlink">
    <title>icon: menu FPO group</title>
    <g id="icon:-menu-FPO-group" stroke="none" stroke-width="1" fill="none" fill-rule="evenodd">
        <path d="M15.6386673,12.201 C15.6386673,12.201 15.4346673,12.377 12.9516673,12.459 C13.0136673,12.145 13.0056673,11.813 12.9476673,11.496 L14.4766673,11.501 C15.2606673,11.227 15.0706673,9.89 14.4766673,9.625 C14.0506673,9.436 12.2936673,8.969 11.2556673,8.7 L11.1176673,8.246 L11.1176673,7.58 C11.9826673,6.899 12.4956673,5.492 12.4956673,4.207 C12.4956673,2.435 12.0786673,0.997 9.99666732,0.997 C9.84366732,0.997 9.71766732,1.02 9.58166732,1.036 C9.15666732,0.76 8.60566732,0.588 7.91066732,0.536 C8.42166732,0.205 9.08666732,0 9.99666732,0 C12.8616673,0 13.4986673,1.87 13.4986673,4.177 C13.4986673,5.66 12.9166673,7.219 11.9446673,8.15 C12.9766673,8.406 15.0076673,8.934 15.3056673,9.204 C15.9686673,9.803 16.2986673,11.301 15.6386673,12.201 Z M9.50066732,5.408 C9.50066732,6.996 8.90066732,8.662 7.90466732,9.638 C8.92366732,9.89 11.0066673,10.429 11.3076673,10.702 C11.9676673,11.302 12.2976673,12.8 11.6376673,13.7 C11.6376673,13.7 11.3076673,13.999 6.02466732,13.999 C0.741667315,13.999 0.361667315,13.7 0.361667315,13.7 C-0.303332685,12.8 0.0316673154,11.302 0.696667315,10.702 C1.00766732,10.422 3.06066732,9.897 4.09966732,9.645 C3.09766732,8.67 2.49466732,6.999 2.49466732,5.407 C2.49466732,2.973 3.13166732,0.999 5.99666732,0.999 C8.86366732,1 9.50066732,2.975 9.50066732,5.408 Z M5.99866732,2.006 C3.91666732,2.006 3.49966732,3.545 3.49966732,5.444 C3.49966732,6.821 4.01266732,8.329 4.87666732,9.057 L4.87666732,9.747 L4.75566732,10.148 C3.87266732,10.405 2.11766732,10.923 1.66466732,11.125 C1.06766732,11.391 0.614667315,12.684 1.50866732,13 C1.51066732,13 5.93766732,12.989 5.93766732,12.989 L10.4776673,13 C11.2616673,12.727 11.0716673,11.391 10.4776673,11.125 C10.0516673,10.936 8.29466732,10.469 7.25666732,10.2 L7.11866732,9.747 L7.11866732,9.057 C7.98366732,8.328 8.49666732,6.822 8.49666732,5.444 C8.49766732,3.545 8.08066732,2.006 5.99866732,2.006 Z" fill="#000000" fill-rule="nonzero"></path>
    </g>
</svg>