<?xml version="1.0" encoding="UTF-8"?>
<svg width="16px" height="16px" viewBox="0 0 16 16" version="1.1" xmlns="http://www.w3.org/2000/svg" xmlns:xlink="http://www.w3.org/1999/xlink">
    <title>icon: menu FPO credit</title>
    <g id="Symbols" stroke="none" stroke-width="1" fill="none" fill-rule="evenodd">
        <g id="icon:-menu-FPO-circle-credits" transform="translate(-12.000000, -12.000000)" fill="#000000" fill-rule="nonzero">
            <g id="icon:-menu-FPO-credit" transform="translate(12.000000, 12.000000)">
                <path d="M8,16 C3.581,16 0,12.418 0,8 C0,3.581 3.581,0 8,0 C12.418,0 16,3.581 16,8 C16,12.418 12.418,16 8,16 Z M8,1 C4.134,1 1,4.134 1,8 C1,11.865 4.134,15 8,15 C11.865,15 15,11.866 15,8 C15,4.134 11.865,1 8,1 Z M10.5,9.549 C10.5,10.482 9.864,11.458 8.164,11.571 L8.164,12.494 L7.496,12.494 L7.496,11.571 C6.389,11.508 5.544,11.073 4.996,10.482 L5.544,9.818 C5.96,10.285 6.629,10.7 7.496,10.794 L7.496,8.273 C6.377,7.982 5.225,7.63 5.225,6.355 C5.225,5.287 6.179,4.53 7.496,4.436 L7.496,3.493 L8.164,3.493 L8.164,4.447 C9.074,4.519 9.798,4.872 10.336,5.401 L9.787,6.034 C9.349,5.577 8.778,5.318 8.164,5.235 L8.164,7.496 C9.294,7.796 10.5,8.19 10.5,9.549 Z M8.164,10.805 C9.206,10.701 9.557,10.11 9.557,9.612 C9.557,8.937 8.932,8.658 8.164,8.44 L8.164,10.805 Z M7.496,5.213 C6.717,5.265 6.169,5.701 6.169,6.302 C6.169,6.872 6.75,7.121 7.496,7.328 L7.496,5.213 Z"></path>
            </g>
        </g>
    </g>
</svg>