<?xml version="1.0" encoding="UTF-8"?>
<svg width="14px" height="14px" viewBox="0 0 14 14" version="1.1" xmlns="http://www.w3.org/2000/svg" xmlns:xlink="http://www.w3.org/1999/xlink">
    <title>icon: menu FPO projects 2</title>
    <g id="Symbols" stroke="none" stroke-width="1" fill="none" fill-rule="evenodd">
        <g id="icon:-menu-FPO-circle-projects" transform="translate(-13.000000, -13.000000)" fill="#000000" fill-rule="nonzero">
            <g id="icon:-menu-FPO-projects-2" transform="translate(13.000000, 13.000000)">
                <path d="M11.1016444,11.2771126 C8.76164442,13.5681126 5.29464442,13.1951126 2.92164442,10.8721126 C2.84364442,10.7951126 2.78564442,10.7091126 2.71264442,10.6301126 C1.58464442,12.1721126 0.860644421,13.5961126 0.860644421,13.5961126 C0.665644421,13.7861126 0.346644421,13.7851126 0.149644421,13.5901126 C-0.0473555792,13.3971126 -0.0503555792,13.0851126 0.143644421,12.8941126 C0.143644421,12.8941126 0.899644421,11.4271126 2.06364442,9.85011262 C0.503644421,7.62711262 0.490644421,4.83411262 2.50664442,2.86011262 C5.68464442,-0.250887383 14.0146444,0.00511261652 14.0146444,0.00511261652 C14.0146444,0.00511261652 13.5726444,8.85711262 11.1016444,11.2771126 Z M3.22364442,3.56011262 C1.73064442,5.02311262 1.28164442,6.99311262 2.68964442,9.05111262 C3.01964442,8.65011262 3.36364442,8.25411262 3.73464442,7.89111262 C5.93964442,5.73011262 8.21264442,4.98811262 8.21264442,4.98811262 C8.40664442,4.79811262 8.72564442,4.80011262 8.92364442,4.99411262 C9.12064442,5.18711262 9.12364442,5.50011262 8.92864442,5.69011262 C8.92864442,5.69011262 6.61164442,6.47511262 4.38564442,8.65611262 C4.00864442,9.02711262 3.65964442,9.42911262 3.32664442,9.83811262 C3.43164442,9.95211262 3.51164442,10.0661126 3.62864442,10.1801126 C6.13564442,12.6351126 8.62064442,12.3051126 10.3866444,10.5771126 C12.5036444,8.50211262 13.0156444,0.922112617 13.0156444,0.922112617 C13.0156444,0.922112617 6.40064442,0.449112617 3.22364442,3.56011262 Z"></path>
            </g>
        </g>
    </g>
</svg>