<svg width="26" height="26" viewBox="0 0 26 26" fill="none" xmlns="http://www.w3.org/2000/svg">
    <path d="M7.71875 0H21.5312C22.7165 0 23.8531 0.470818 24.6911 1.30886C25.5292 2.14692 26 3.28357 26 4.46875V16.6562C26 17.8414 25.5292 18.9781 24.6911 19.8161C23.8531 20.6542 22.7165 21.125 21.5312 21.125H19.0938V18.6875H21.5312C22.07 18.6875 22.5866 18.4735 22.9676 18.0926C23.3485 17.7116 23.5625 17.195 23.5625 16.6562V4.46875C23.5625 3.93002 23.3485 3.41338 22.9676 3.03244C22.5866 2.65151 22.07 2.4375 21.5312 2.4375H15.8438V7.71875H13.4062V2.4375H7.71875C7.17999 2.4375 6.66335 2.65151 6.28239 3.03244C5.90154 3.41338 5.6875 3.93002 5.6875 4.46875V6.90625H3.25V4.46875C3.25 3.28357 3.72082 2.14692 4.55891 1.30886C5.3969 0.470818 6.53352 0 7.71875 0Z" fill="white"/>
    <path d="M2.84375 24.5781C2.84375 25.3634 2.2072 26 1.42188 26C0.636551 26 0 25.3634 0 24.5781C0 23.7929 0.636551 23.1562 1.42188 23.1562C2.2072 23.1562 2.84375 23.7929 2.84375 24.5781Z" fill="white"/>
    <path d="M6.90625 24.375V25.5938H9.34375V24.375C9.34375 22.3279 8.53056 20.3646 7.08299 18.917C5.63543 17.4695 3.67212 16.6562 1.625 16.6562H0.40625V19.0938H1.625C3.02565 19.0938 4.36897 19.6502 5.35941 20.6406C6.34984 21.631 6.90625 22.9743 6.90625 24.375Z" fill="white"/>
    <path d="M13.4062 25.5938V24.375C13.4062 21.2504 12.165 18.2538 9.9556 16.0444C7.74622 13.835 4.74953 12.5938 1.625 12.5938H0.40625V10.1562H1.625C5.396 10.1562 9.01268 11.6543 11.6792 14.3208C14.3457 16.9874 15.8438 20.6039 15.8438 24.375V25.5938H13.4062Z" fill="white"/>
</svg>
