<?xml version="1.0" encoding="UTF-8"?>
<svg width="14px" height="16px" viewBox="0 0 14 16" version="1.1" xmlns="http://www.w3.org/2000/svg" xmlns:xlink="http://www.w3.org/1999/xlink">
    <title>icon: menu FPO food</title>
    <g id="Symbols" stroke="none" stroke-width="1" fill="none" fill-rule="evenodd">
        <g id="icon:-menu-FPO-circle-food" transform="translate(-13.000000, -12.000000)" fill="#000000" fill-rule="nonzero">
            <g id="icon:-menu-FPO-food" transform="translate(13.000000, 12.000000)">
                <path d="M2,6.45 L2,16 L3,16 L3,6.45 C4.417,6.21 5,4.986 5,3.5 L5,0.5 L5,0.002 L4,0.002 L4,0.501 L4,3.501 C4,4.431 3.861,5.207 3,5.43 L3,0.001 L2,0.001 L2,5.43 C1.139,5.207 1,4.431 1,3.501 L1,0.501 L1,0.002 L0,0.002 L0,0.501 L0,3.501 C0,4.986 0.583,6.21 2,6.45 Z M10,8.949 L10,16 L11,16 L11,8.949 C12.695,8.636 14,6.767 14,4.5 C14,2.015 12.433,0 10.5,0 C8.567,0 7,2.015 7,4.5 C7,6.768 8.304,8.637 10,8.949 Z M10.5,1.001 C11.88,1.001 13,2.568 13,4.501 C13,6.434 11.88,8.001 10.5,8.001 C9.119,8.001 8,6.434 8,4.501 C8,2.568 9.119,1.001 10.5,1.001 Z"></path>
            </g>
        </g>
    </g>
</svg>