<?xml version="1.0" encoding="UTF-8"?>
<svg width="12px" height="16px" viewBox="0 0 12 16" version="1.1" xmlns="http://www.w3.org/2000/svg" xmlns:xlink="http://www.w3.org/1999/xlink">
    <title>icon: menu FPO purchase</title>
    <g id="Symbols" stroke="none" stroke-width="1" fill="none" fill-rule="evenodd">
        <g id="icon:-menu-FPO-circle-purchase" transform="translate(-14.000000, -12.000000)" fill="#000000" fill-rule="nonzero">
            <g id="icon:-menu-FPO-purchase" transform="translate(14.000000, 12.000000)">
                <path d="M11,16 L1,16 C0.447,16 0,15.552 0,15 L0,4 C0,3.447 0.447,3 1,3 L3,3 L3,2.5 C3,1.119 4.119,0 5.5,0 L6.5,0 C7.881,0 9,1.119 9,2.5 L9,3 L11,3 C11.552,3 12,3.447 12,4 L12,15 C12,15.552 11.552,16 11,16 Z M8,2.5 C8,1.671 7.328,1 6.5,1 L5.5,1 C4.672,1 4,1.671 4,2.5 L4,3 L8,3 L8,2.5 Z M11,4.5 C11,4.224 10.775,4 10.5,4 L9,4 L9,6 L8,6 L8,4 L4,4 L4,6 L3,6 L3,4 L1.5,4 C1.224,4 1,4.224 1,4.5 L1,12 L11,12 L11,4.5 Z M11,13 L1,13 L1,14.5 C1,14.776 1.224,15 1.5,15 L10.5,15 C10.775,15 11,14.775 11,14.5 L11,13 Z"></path>
            </g>
        </g>
    </g>
</svg>