<?xml version="1.0" encoding="UTF-8"?>
<svg width="17px" height="17px" viewBox="0 0 17 17" version="1.1" xmlns="http://www.w3.org/2000/svg" xmlns:xlink="http://www.w3.org/1999/xlink">
    <title>icon: menu FPO footprint</title>
    <g id="icon:-menu-FPO-footprint" stroke="none" stroke-width="1" fill="none" fill-rule="evenodd">
        <path d="M15.001,14 L15.001,15.001 C15.001,15.554 14.553,16.002 14.001,16.002 L13.001,16.002 C12.448,16.002 12.001,15.554 12.001,15.001 L12.001,14 L4.001,14 L4.001,15.001 C4.001,15.554 3.553,16.002 3.001,16.002 L2.001,16.002 C1.448,16.002 1.001,15.554 1.001,15.001 L1.001,14 L0,14 L0,12 L0,9 C0,8.196 0.479,7.508 1.163,7.189 L2.001,3 C2.001,1.344 3.344,0 5.001,0 L11.001,0 C12.657,0 14.001,1.344 14.001,3 L14.801,7 L14.839,7.189 C15.524,7.507 16.001,8.196 16.001,9 L16.001,12 L16.001,14 L15.001,14 Z M13.001,14.501 C13.001,14.777 13.225,15.001 13.501,15.001 C13.776,15.001 14.001,14.777 14.001,14.501 L14.001,14 L13.001,14 L13.001,14.501 Z M2.001,14.501 C2.001,14.777 2.225,15.001 2.5,15.001 C2.776,15.001 3.001,14.777 3.001,14.501 L3.001,14 L2.001,14 L2.001,14.501 Z M13.001,3 C13.001,1.896 12.105,1 11.001,1 L5.001,1 C3.896,1 3.001,1.896 3.001,3 L2.201,7 L13.801,7 L13.001,3 Z M15.001,12.002 L15.001,12.002 L15.001,12 L15.001,9 C15.001,8.448 14.553,8 14.001,8 L2.001,8 C1.448,8 1.001,8.448 1.001,9 L1.001,12 L1.001,12.002 L1.001,12.002 L1.001,13.002 L15.001,13.002 L15.001,12.002 Z M12.501,12 C11.673,12 11.001,11.329 11.001,10.501 C11.001,9.672 11.673,9 12.501,9 C13.329,9 14.001,9.672 14.001,10.501 C14.001,11.329 13.329,12 12.501,12 Z M12.501,10 C12.225,10 12.001,10.225 12.001,10.501 C12.001,10.776 12.225,11 12.501,11 C12.776,11 13.001,10.776 13.001,10.501 C13.001,10.225 12.776,10 12.501,10 Z M3.501,12 C2.673,12 2.001,11.329 2.001,10.501 C2.001,9.672 2.673,9 3.501,9 C4.329,9 5.001,9.672 5.001,10.501 C5.001,11.329 4.329,12 3.501,12 Z M3.501,10 C3.225,10 3.001,10.225 3.001,10.501 C3.001,10.776 3.225,11 3.501,11 C3.776,11 4.001,10.776 4.001,10.501 C4.001,10.225 3.776,10 3.501,10 Z" fill="#000000" fill-rule="nonzero"></path>
    </g>
</svg>