<?xml version="1.0" encoding="UTF-8"?>
<svg width="340px" height="307px" viewBox="0 0 340 307" version="1.1" xmlns="http://www.w3.org/2000/svg" xmlns:xlink="http://www.w3.org/1999/xlink">
    <title>chart</title>
    <defs>
        <circle id="path-1" cx="171" cy="156" r="60"></circle>
        <mask id="mask-2" maskContentUnits="userSpaceOnUse" maskUnits="objectBoundingBox" x="0" y="0" width="120" height="120" fill="white">
            <use xlink:href="#path-1"></use>
        </mask>
    </defs>
    <g id="Phase-1-scope-prototype" stroke="none" stroke-width="1" fill="none" fill-rule="evenodd">
        <g id="equa_wf_final_08-01a_profile_new" transform="translate(-17.000000, -439.000000)">
            <g id="progress" transform="translate(0.000000, 328.000000)">
                <g id="chart" transform="translate(17.000000, 111.000000)">
                    <path d="M171,31 C239.483309,31 295,86.516691 295,155 L294.999,154.999 L171,154.999 Z" id="Combined-Shape" stroke="#FFFFFF" stroke-width="4" fill="#C9CDD1" opacity="0.300000012"></path>
                    <path d="M171,137 C180.941125,137 189,145.058875 189,155 L189,155 L171,155 Z" id="Combined-Shape-Copy-8" stroke="#FFFFFF" stroke-width="4" fill-opacity="0.7" fill="#FFAB40"></path>
                    <path d="M28.6501483,18 C105.473722,18 168.082255,78.8618249 170.889553,154.999281 L28.6501483,155 Z" id="Combined-Shape-Copy" stroke="#FFFFFF" stroke-width="4" fill="#C9CDD1" opacity="0.300000012" transform="translate(99.769863, 86.500000) scale(-1, 1) translate(-99.769863, -86.500000) "></path>
                    <path d="M152.201186,137 C162.294983,137 170.52104,144.996743 170.889596,155.000466 L152.201186,155 Z" id="Combined-Shape-Copy-4" stroke="#FFFFFF" stroke-width="4" fill-opacity="0.7" fill="#FFAB40" transform="translate(161.545382, 146.000000) scale(-1, 1) translate(-161.545382, -146.000000) "></path>
                    <path d="M171,156 C247.76758,156 310,218.23242 310,295 L310,295 L171,295 Z" id="Combined-Shape-Copy-3" stroke="#FFFFFF" stroke-width="4" fill="#C9CDD1" opacity="0.300000012" transform="translate(240.500000, 225.500000) scale(1, -1) translate(-240.500000, -225.500000) "></path>
                    <path d="M171,156 C180.941125,156 189,164.058875 189,174 L189,174 L171,174 Z" id="Combined-Shape-Copy-6" stroke="#FFFFFF" stroke-width="4" fill-opacity="0.7" fill="#FFAB40" transform="translate(180.000000, 165.000000) scale(1, -1) translate(-180.000000, -165.000000) "></path>
                    <path d="M72.0007958,155.000004 C126.722728,155.269673 171,199.713466 171,254.49877 L171,254.458 L72,254.458 Z" id="Combined-Shape-Copy-2" stroke="#FFFFFF" stroke-width="4" fill="#C9CDD1" opacity="0.300000012" transform="translate(121.499996, 204.729401) scale(-1, -1) translate(-121.499996, -204.729401) "></path>
                    <path d="M152.999595,154.999998 C162.949287,155.048734 170.999994,163.129535 170.999994,173.090679 L170.999,173.083 L153,173.083 Z" id="Combined-Shape-Copy-5" stroke="#FFFFFF" stroke-width="4" fill-opacity="0.7" fill="#FFAB40" transform="translate(161.999996, 164.041706) scale(-1, -1) translate(-161.999996, -164.041706) "></path>
                    <use id="Oval-4" stroke="#66BB6A" mask="url(#mask-2)" stroke-width="4" stroke-dasharray="2,2" xlink:href="#path-1"></use>
                    <text id="Travel" font-family="Roboto-Regular, Roboto" font-size="10" font-weight="normal" fill="#BDBDBD">
                        <tspan x="0" y="9">TRAVEL</tspan>
                    </text>
                    <g id="Group" transform="translate(0.000000, 18.000000)" fill="#000000" fill-rule="nonzero" opacity="0.300000012">
                        <g id="icon:-menu-FPO-footprint">
                            <path d="M15.001,14 L15.001,15.001 C15.001,15.554 14.553,16.002 14.001,16.002 L13.001,16.002 C12.448,16.002 12.001,15.554 12.001,15.001 L12.001,14 L4.001,14 L4.001,15.001 C4.001,15.554 3.553,16.002 3.001,16.002 L2.001,16.002 C1.448,16.002 1.001,15.554 1.001,15.001 L1.001,14 L0,14 L0,12 L0,9 C0,8.196 0.479,7.508 1.163,7.189 L2.001,3 C2.001,1.344 3.344,0 5.001,0 L11.001,0 C12.657,0 14.001,1.344 14.001,3 L14.801,7 L14.839,7.189 C15.524,7.507 16.001,8.196 16.001,9 L16.001,12 L16.001,14 L15.001,14 Z M13.001,14.501 C13.001,14.777 13.225,15.001 13.501,15.001 C13.776,15.001 14.001,14.777 14.001,14.501 L14.001,14 L13.001,14 L13.001,14.501 Z M2.001,14.501 C2.001,14.777 2.225,15.001 2.5,15.001 C2.776,15.001 3.001,14.777 3.001,14.501 L3.001,14 L2.001,14 L2.001,14.501 Z M13.001,3 C13.001,1.896 12.105,1 11.001,1 L5.001,1 C3.896,1 3.001,1.896 3.001,3 L2.201,7 L13.801,7 L13.001,3 Z M15.001,12.002 L15.001,12.002 L15.001,12 L15.001,9 C15.001,8.448 14.553,8 14.001,8 L2.001,8 C1.448,8 1.001,8.448 1.001,9 L1.001,12 L1.001,12.002 L1.001,12.002 L1.001,13.002 L15.001,13.002 L15.001,12.002 Z M12.501,12 C11.673,12 11.001,11.329 11.001,10.501 C11.001,9.672 11.673,9 12.501,9 C13.329,9 14.001,9.672 14.001,10.501 C14.001,11.329 13.329,12 12.501,12 Z M12.501,10 C12.225,10 12.001,10.225 12.001,10.501 C12.001,10.776 12.225,11 12.501,11 C12.776,11 13.001,10.776 13.001,10.501 C13.001,10.225 12.776,10 12.501,10 Z M3.501,12 C2.673,12 2.001,11.329 2.001,10.501 C2.001,9.672 2.673,9 3.501,9 C4.329,9 5.001,9.672 5.001,10.501 C5.001,11.329 4.329,12 3.501,12 Z M3.501,10 C3.225,10 3.001,10.225 3.001,10.501 C3.001,10.776 3.225,11 3.501,11 C3.776,11 4.001,10.776 4.001,10.501 C4.001,10.225 3.776,10 3.501,10 Z"></path>
                        </g>
                    </g>
                    <g id="Group" transform="translate(324.000000, 18.000000)" fill="#000000" fill-rule="nonzero" opacity="0.300000012">
                        <g id="icon:-menu-FPO-home">
                            <path d="M7.62025,0.143374006 C7.72425,0.040374006 7.85925,-0.00362599405 7.99525,0.000374005952 C8.13025,-0.00462599405 8.26625,0.040374006 8.37025,0.143374006 L15.84125,6.12937401 C16.03925,6.32837401 16.03925,6.65037401 15.84125,6.85037401 C15.64225,7.04937401 15.32025,7.04937401 15.12125,6.85037401 L14.98125,6.73837401 L14.98125,15.006374 C14.98125,15.558374 14.53425,16.006374 13.98325,16.006374 L11.98725,16.006374 L6.99725,16.006374 L2.00725,16.006374 C1.45625,16.006374 1.00925,15.558374 1.00925,15.006374 L1.00925,6.73837401 L0.86825,6.85037401 C0.67025,7.04937401 0.34725,7.04937401 0.14925,6.85037401 C-0.04975,6.65137401 -0.04975,6.32937401 0.14925,6.12937401 L7.62025,0.143374006 Z M7.99525,15.005374 L10.98925,15.005374 L10.98925,9.00437401 L7.99525,9.00437401 L7.99525,15.005374 Z M13.98425,5.93837401 L7.99625,1.14137401 L2.00825,5.93837401 L2.00825,14.504374 C2.00825,14.780374 2.23125,15.005374 2.50725,15.005374 L6.99825,15.005374 L6.99825,8.00437401 L11.98825,8.00437401 L11.98825,15.005374 L13.48525,15.005374 C13.76025,15.005374 13.98425,14.780374 13.98425,14.504374 L13.98425,5.93837401 Z M3.00525,8.00437401 L5.99925,8.00437401 L5.99925,11.004374 L3.00525,11.004374 L3.00525,8.00437401 Z M4.00325,10.004374 L5.00125,10.004374 L5.00125,9.00437401 L4.00325,9.00437401 L4.00325,10.004374 Z"></path>
                        </g>
                    </g>
                    <g id="Group" transform="translate(328.000000, 273.000000)" fill="#000000" fill-rule="nonzero" opacity="0.300000012">
                        <g id="icon:-menu-FPO-purchase">
                            <path d="M11,16 L1,16 C0.447,16 0,15.552 0,15 L0,4 C0,3.447 0.447,3 1,3 L3,3 L3,2.5 C3,1.119 4.119,0 5.5,0 L6.5,0 C7.881,0 9,1.119 9,2.5 L9,3 L11,3 C11.552,3 12,3.447 12,4 L12,15 C12,15.552 11.552,16 11,16 Z M8,2.5 C8,1.671 7.328,1 6.5,1 L5.5,1 C4.672,1 4,1.671 4,2.5 L4,3 L8,3 L8,2.5 Z M11,4.5 C11,4.224 10.775,4 10.5,4 L9,4 L9,6 L8,6 L8,4 L4,4 L4,6 L3,6 L3,4 L1.5,4 C1.224,4 1,4.224 1,4.5 L1,12 L11,12 L11,4.5 Z M11,13 L1,13 L1,14.5 C1,14.776 1.224,15 1.5,15 L10.5,15 C10.775,15 11,14.775 11,14.5 L11,13 Z"></path>
                        </g>
                    </g>
                    <g id="Group" transform="translate(2.000000, 273.000000)" fill="#000000" fill-rule="nonzero" opacity="0.300000012">
                        <g id="icon:-menu-FPO-food">
                            <path d="M2,6.45 L2,16 L3,16 L3,6.45 C4.417,6.21 5,4.986 5,3.5 L5,0.5 L5,0.002 L4,0.002 L4,0.501 L4,3.501 C4,4.431 3.861,5.207 3,5.43 L3,0.001 L2,0.001 L2,5.43 C1.139,5.207 1,4.431 1,3.501 L1,0.501 L1,0.002 L0,0.002 L0,0.501 L0,3.501 C0,4.986 0.583,6.21 2,6.45 Z M10,8.949 L10,16 L11,16 L11,8.949 C12.695,8.636 14,6.767 14,4.5 C14,2.015 12.433,0 10.5,0 C8.567,0 7,2.015 7,4.5 C7,6.768 8.304,8.637 10,8.949 Z M10.5,1.001 C11.88,1.001 13,2.568 13,4.501 C13,6.434 11.88,8.001 10.5,8.001 C9.119,8.001 8,6.434 8,4.501 C8,2.568 9.119,1.001 10.5,1.001 Z"></path>
                        </g>
                    </g>
                    <text id="Home" font-family="Roboto-Regular, Roboto" font-size="10" font-weight="normal" fill="#BDBDBD">
                        <tspan x="311.582031" y="9">HOME</tspan>
                    </text>
                    <text id="Food" font-family="Roboto-Regular, Roboto" font-size="10" font-weight="normal" fill="#BDBDBD">
                        <tspan x="0" y="305">FOOD</tspan>
                    </text>
                    <g id="Group" transform="translate(151.000000, 89.000000)">
                        <rect id="Rectangle-5" fill="#66BB6A" x="0" y="0" width="39" height="16" rx="8"></rect>
                        <text id="Goal" font-family="Roboto-Bold, Roboto" font-size="8" font-weight="bold" fill="#FFFFFF">
                            <tspan x="9.65625" y="11">GOAL</tspan>
                        </text>
                    </g>
                    <text id="Purchases" font-family="Roboto-Regular, Roboto" font-size="10" font-weight="normal" fill="#BDBDBD">
                        <tspan x="283.339844" y="305">PURCHASES</tspan>
                    </text>
                </g>
            </g>
        </g>
    </g>
</svg>