<?xml version="1.0" encoding="UTF-8"?>
<svg width="14px" height="20px" viewBox="0 0 14 20" version="1.1" xmlns="http://www.w3.org/2000/svg" xmlns:xlink="http://www.w3.org/1999/xlink">
    <title>icon: offset FPO forestry (black)</title>
    <g id="Symbols" stroke="none" stroke-width="1" fill="none" fill-rule="evenodd">
        <g id="icon:-offset-FPO-forestry-(black)" transform="translate(-5.000000, -2.000000)" fill="#FFFFFF" fill-rule="nonzero">
            <path d="M18.7508594,20.7499219 L18.7508594,22 L5,22 L5,20.7499219 L11.2503906,20.7499219 L11.2503906,18.176011 C7.75017189,17.7959872 5,14.3582724 5,10.1242578 C5,5.63772736 8.07894243,2 11.8754297,2 C15.671917,2 18.7508594,5.63772736 18.7508594,10.1242578 C18.7508594,14.3595225 15.9994375,17.7972373 12.5004688,18.176011 L12.5004688,20.7499219 L18.7508594,20.7499219 Z M17.5007813,10.1242578 C17.5007813,6.32777049 14.9806238,3.24882805 11.8754297,3.24882805 C8.76898556,3.24882805 6.25007813,6.32777049 6.25007813,10.1242578 C6.25007813,13.6607288 8.44146509,16.5384087 11.2503906,16.9221826 L11.2503906,12.9394337 L7.49015563,9.1791987 L8.43021439,8.23913995 L11.2503906,11.0593162 L11.2503906,5.74773423 L12.5004688,5.74773423 L12.5004688,11.0668167 L15.3081443,8.2591412 L16.2407025,9.19169948 L12.5004688,12.9306832 L12.5004688,16.9209326 C15.3081443,16.5384087 17.5007813,13.6607288 17.5007813,10.1242578 Z"></path>
        </g>
    </g>
</svg>